<?xml version="1.0" standalone="no"?>
<!DOCTYPE svg PUBLIC "-//W3C//DTD SVG 20010904//EN"
 "http://www.w3.org/TR/2001/REC-SVG-20010904/DTD/svg10.dtd">
<svg version="1.0" xmlns="http://www.w3.org/2000/svg"
 width="800.000000pt" height="800.000000pt" viewBox="0 0 800.000000 800.000000"
 preserveAspectRatio="xMidYMid meet">
<metadata>
Created by potrace 1.14, written by Peter Selinger 2001-2017
</metadata>
<g transform="translate(0.000000,800.000000) scale(0.100000,-0.100000)"
fill="#000000" stroke="none">
<path d="M4656 7573 c-1 -2 -26 -5 -54 -8 -29 -2 -62 -10 -75 -16 -12 -7 -24
-12 -27 -11 -11 4 -78 -22 -143 -54 -154 -76 -315 -203 -492 -384 -161 -165
-194 -205 -343 -410 -50 -69 -95 -129 -99 -135 -12 -15 -113 -180 -150 -245
-11 -19 -34 -58 -51 -86 -18 -28 -32 -56 -32 -63 0 -6 -4 -11 -10 -11 -5 0
-10 -7 -10 -15 0 -9 -10 -32 -23 -53 -19 -29 -105 -199 -113 -222 -1 -3 -5
-15 -9 -27 -4 -13 -12 -23 -17 -23 -5 0 -7 -4 -4 -9 3 -4 -1 -17 -9 -27 -8
-10 -15 -24 -15 -31 0 -6 -13 -40 -29 -75 -16 -35 -39 -88 -50 -118 -12 -30
-26 -64 -31 -75 -11 -22 -58 -151 -65 -175 -2 -8 -16 -46 -30 -85 -24 -66 -33
-93 -39 -122 -1 -7 -5 -16 -9 -19 -4 -4 -7 -17 -7 -29 0 -11 -5 -26 -12 -33
-7 -7 -9 -12 -5 -12 4 0 1 -13 -8 -30 -9 -16 -13 -30 -10 -30 3 0 -1 -16 -9
-35 -8 -19 -13 -35 -11 -35 1 0 -4 -21 -12 -47 -13 -44 -67 -254 -79 -312 -3
-14 -7 -28 -9 -31 -2 -4 -7 -21 -10 -38 -3 -17 -12 -62 -20 -99 -9 -37 -17
-79 -19 -93 -9 -51 -16 -88 -36 -185 -11 -55 -23 -116 -26 -135 -3 -19 -7 -42
-9 -50 -3 -8 -7 -33 -10 -55 -3 -22 -7 -51 -10 -64 -2 -13 -7 -49 -11 -80 -3
-31 -10 -66 -15 -77 -4 -12 -6 -24 -3 -27 3 -2 -2 -49 -10 -103 -16 -99 -31
-216 -41 -309 -3 -27 -8 -66 -10 -86 -3 -20 -8 -65 -10 -100 -2 -35 -6 -75 -9
-89 -2 -14 -7 -61 -11 -105 -4 -44 -8 -93 -10 -110 -6 -48 -17 -206 -18 -257
-2 -68 -10 -56 -21 32 -3 19 -5 35 -6 35 -1 0 -3 14 -5 30 -1 17 -6 48 -10 70
-3 22 -8 51 -10 65 -3 14 -9 61 -15 105 -6 44 -13 92 -15 106 -3 14 -7 50 -10
80 -3 30 -7 72 -10 94 -3 22 -7 63 -9 90 -3 28 -8 75 -11 105 -9 97 -24 298
-31 410 -28 523 -20 1181 21 1680 2 30 7 84 10 120 8 98 14 159 20 199 2 20 7
55 10 79 17 141 24 199 30 232 3 14 7 41 10 60 6 34 31 171 42 220 10 47 11
55 13 55 1 0 3 14 5 30 2 17 7 41 11 55 4 14 8 30 10 36 1 7 18 67 37 135 19
68 39 140 43 159 4 19 8 37 9 40 3 12 17 139 19 175 12 212 -170 402 -379 397
-51 -2 -57 -3 -110 -17 -36 -10 -127 -58 -163 -88 -81 -66 -222 -235 -222
-266 0 -4 -6 -21 -14 -37 -19 -38 -58 -126 -62 -139 -2 -5 -17 -50 -34 -100
-17 -49 -32 -99 -34 -110 -2 -11 -15 -69 -29 -130 -14 -60 -28 -130 -32 -155
-4 -25 -9 -54 -12 -65 -4 -18 -7 -42 -18 -115 -2 -14 -4 -25 -5 -25 -2 0 -9
-52 -15 -110 -2 -27 -6 -59 -9 -70 -2 -11 -7 -47 -10 -80 -3 -33 -9 -76 -11
-95 -7 -46 -14 -120 -20 -195 -2 -33 -7 -89 -10 -125 -6 -74 -12 -167 -20
-288 -3 -46 -7 -87 -10 -92 -3 -5 -1 -11 5 -15 6 -4 8 -11 4 -16 -17 -27 -25
-881 -11 -1174 13 -290 27 -495 42 -640 2 -22 7 -67 10 -100 3 -33 8 -80 11
-105 5 -43 7 -68 20 -175 3 -27 8 -68 9 -90 2 -22 4 -40 5 -40 3 0 9 -38 15
-90 6 -50 11 -80 20 -133 3 -16 7 -44 9 -63 9 -61 67 -363 81 -419 8 -30 16
-66 19 -80 3 -14 10 -45 17 -70 6 -25 12 -52 14 -60 9 -46 83 -292 121 -404
43 -128 50 -144 72 -196 6 -14 29 -65 51 -115 70 -163 113 -230 211 -330 66
-67 77 -75 165 -119 42 -21 113 -43 200 -62 46 -11 128 -4 168 14 69 31 129
102 142 171 2 9 9 36 16 61 15 53 15 55 24 100 12 58 7 211 -10 277 -3 13 -7
33 -10 45 -3 13 -8 47 -10 77 -2 29 -6 55 -8 58 -3 2 -1 20 3 39 4 19 4 36 0
39 -5 3 -5 18 -1 33 5 15 5 36 1 47 -4 11 -6 23 -4 27 3 4 7 100 9 215 3 114
7 226 10 248 2 22 7 74 10 115 3 41 8 95 11 120 5 53 12 123 19 200 3 30 7 66
9 80 2 14 7 54 10 90 4 36 9 79 12 97 3 17 7 49 9 70 2 21 4 38 5 38 1 0 3 16
5 35 2 19 6 51 9 70 2 19 7 58 10 85 4 28 9 66 12 85 3 19 7 49 9 65 2 17 13
89 25 160 12 72 23 141 25 155 2 14 7 39 10 55 7 34 35 187 42 225 3 21 14 73
38 185 3 11 7 31 10 45 3 14 7 34 10 45 19 89 80 337 100 410 14 49 27 97 30
106 8 35 49 170 83 274 20 61 37 115 38 120 3 18 106 289 120 316 7 15 10 29
7 33 -4 3 -2 6 4 6 5 0 10 6 10 13 0 30 211 478 304 647 23 41 68 117 100 168
33 51 59 95 59 98 0 5 133 198 172 249 174 225 332 393 448 475 19 14 39 30
45 35 7 6 28 19 48 30 20 11 37 23 37 27 0 5 9 8 20 8 11 0 20 4 20 9 0 8 42
20 97 27 21 2 44 -16 50 -40 1 -6 6 -27 11 -46 14 -57 5 -279 -17 -395 -17
-91 -18 -97 -29 -140 -6 -22 -13 -51 -16 -65 -4 -23 -19 -88 -32 -135 -3 -11
-7 -27 -9 -35 -2 -8 -4 -16 -5 -17 -2 -2 -4 -7 -5 -13 -1 -5 -3 -11 -4 -12 0
-2 -28 -82 -60 -178 -33 -96 -66 -188 -75 -205 -9 -16 -16 -38 -16 -47 0 -9
-4 -20 -10 -23 -5 -3 -10 -15 -10 -26 0 -10 -4 -19 -10 -19 -5 0 -10 -5 -10
-11 0 -30 -255 -555 -301 -620 -10 -15 -19 -30 -19 -34 0 -9 -202 -316 -221
-335 -8 -8 -48 -55 -89 -105 -41 -49 -81 -96 -88 -104 -50 -52 -133 -205 -147
-271 -2 -8 -11 -47 -19 -86 -26 -108 -10 -188 51 -260 35 -41 170 -118 226
-128 12 -3 22 -5 22 -6 0 -11 139 -15 205 -5 79 11 199 60 273 110 19 13 57 9
57 -6 0 -5 7 -9 15 -9 8 0 15 -4 15 -8 0 -4 13 -15 29 -25 56 -33 169 -154
224 -239 66 -102 108 -183 100 -192 -4 -3 -2 -6 4 -6 6 0 13 -8 16 -17 3 -10
15 -45 27 -78 39 -105 52 -177 55 -300 2 -104 -1 -147 -20 -275 -8 -57 -52
-241 -72 -300 -8 -25 -16 -52 -18 -60 -7 -31 -66 -192 -94 -252 -15 -35 -34
-78 -41 -96 -7 -17 -16 -32 -20 -32 -3 0 -7 -6 -7 -12 0 -25 -105 -190 -182
-285 -70 -88 -293 -317 -396 -407 -51 -44 -158 -109 -209 -126 -22 -7 -99 -14
-170 -16 -72 -2 -144 -6 -161 -8 -16 -2 -55 -7 -85 -11 -30 -5 -65 -7 -78 -7
-41 3 -56 -24 -55 -92 3 -131 95 -290 209 -363 25 -17 146 -77 159 -79 6 -1
29 -9 53 -18 23 -8 42 -13 42 -11 0 3 12 0 28 -6 43 -18 97 -22 252 -22 143 1
167 3 265 24 198 42 397 144 595 304 94 76 214 194 275 270 22 28 45 55 50 61
41 47 123 171 156 234 13 25 26 47 29 50 6 4 21 35 25 50 0 3 10 23 22 45 11
22 21 42 21 45 1 6 10 30 42 110 18 46 44 120 56 165 23 83 37 134 40 150 5
24 21 117 28 160 6 34 16 136 21 206 1 26 5 52 9 57 3 6 2 13 -4 17 -6 3 -7
14 -2 23 6 14 8 287 2 287 -1 0 -3 29 -4 65 -3 67 -15 180 -23 215 -2 11 -6
32 -8 48 -18 125 -88 353 -158 517 -6 14 -11 27 -11 30 -3 14 -93 182 -124
230 -46 74 -136 185 -192 238 -47 45 -208 159 -232 164 -7 2 -15 5 -18 8 -3 3
-29 16 -57 29 -29 14 -53 26 -53 27 0 4 104 169 111 174 18 16 186 336 259
495 41 88 159 392 165 422 2 13 7 28 11 34 7 12 52 169 60 209 2 14 7 32 10
40 3 8 8 26 10 40 3 14 11 52 19 85 8 33 17 76 20 95 3 19 8 42 10 50 2 8 7
40 10 70 3 30 8 71 10 90 12 96 18 170 19 217 1 29 3 53 6 53 3 0 5 47 5 105
0 58 -2 105 -5 105 -3 0 -5 24 -5 53 0 28 -2 57 -5 62 -2 6 -5 28 -6 50 -1 22
-4 51 -7 65 -4 14 -8 41 -11 60 -24 175 -118 394 -226 523 -44 53 -120 117
-139 117 -5 0 -11 4 -13 8 -4 12 -114 63 -147 69 -14 2 -28 7 -31 11 -3 4 -16
8 -30 9 -52 5 -160 9 -164 6z"/>
<path d="M6368 4235 c-2 -2 -18 -5 -36 -8 -53 -9 -135 -53 -179 -98 -50 -50
-73 -93 -122 -236 -38 -108 -39 -116 -37 -225 3 -96 7 -144 16 -155 2 -2 3 -6
4 -10 7 -31 47 -93 86 -133 129 -133 338 -156 491 -56 65 44 169 156 169 183
0 7 4 13 9 13 13 0 42 105 47 167 2 28 4 55 5 60 1 4 1 10 0 13 -1 3 -3 28 -5
57 -5 88 -67 216 -146 301 -41 46 -123 99 -169 112 -37 10 -128 20 -133 15z"/>
</g>
</svg>
